<svg width="128" height="96" viewBox="0 0 128 96" fill="none" xmlns="http://www.w3.org/2000/svg">
<path d="M104 24c-8.8-4-18.2-6.9-28-8-1.1 2-2.3 4.5-3.3 6.8-9.8-1.5-19.6-1.5-29.2 0-1-2.3-2.2-4.8-3.3-6.8-9.8 1.1-19.2 4-28 8-17.8 26.2-22.5 51.7-20.1 76 12 8.8 24 14.1 35.6 17.6 2.7-3.7 5.1-7.6 7.1-11.8-3.9-1.5-7.6-3.3-11.2-5.4.9-.7 1.9-1.3 2.8-2 21.3 10.5 44.2 10.5 65.3 0 .9.7 1.9 1.3 2.8 2-3.6 2.1-7.3 3.9-11.2 5.4 2 4.2 4.4 8.1 7.1 11.8 11.6-3.5 23.6-8.8 35.6-17.6 2.9-28.9-4.9-54-20.1-76zM43.4 83.3c-6.3 0-11.5-5.8-11.5-12.9s5.1-12.9 11.5-12.9c6.4 0 11.6 5.8 11.5 12.9 0 7.1-5.1 12.9-11.5 12.9zm38 0c-6.3 0-11.5-5.8-11.5-12.9s5.1-12.9 11.5-12.9c6.4 0 11.6 5.8 11.5 12.9 0 7.1-5.1 12.9-11.5 12.9z" fill="#5865F2"/>
</svg>
